<?xml version="1.0" encoding="utf-8"?>
<!-- Generator: Adobe Illustrator 17.0.0, SVG Export Plug-In . SVG Version: 6.00 Build 0)  -->
<!DOCTYPE svg PUBLIC "-//W3C//DTD SVG 1.0//EN" "http://www.w3.org/TR/2001/REC-SVG-20010904/DTD/svg10.dtd">
<svg version="1.0" id="Layer_1" xmlns="http://www.w3.org/2000/svg" xmlns:xlink="http://www.w3.org/1999/xlink" x="0px" y="0px"
	 width="510.336px" height="184.352px" viewBox="0 0 510.336 184.352" enable-background="new 0 0 510.336 184.352"
	 xml:space="preserve">
<g>
	<defs>
		<rect id="SVGID_1_" x="-21" y="-7.418" width="551" height="199.041"/>
	</defs>
	<clipPath id="SVGID_2_">
		<use xlink:href="#SVGID_1_"  overflow="visible"/>
	</clipPath>
	<path clip-path="url(#SVGID_2_)" fill="#58595B" d="M198.131,141.269c1.284,1.303,2.897,1.983,4.783,1.983
		c1.866,0,3.517-0.641,4.802-1.925c1.575-1.593,1.904-3.421,1.904-7.368h-5.112c-0.738,0-0.991-0.058-1.284-0.233
		c-0.349-0.233-0.564-0.622-0.564-1.088c0-0.466,0.214-0.856,0.564-1.088c0.293-0.176,0.546-0.234,1.284-0.234h6.202
		c0.467,0,0.991,0,1.398,0.409c0.409,0.408,0.409,0.932,0.409,1.399v0.505c0,5.054-0.447,7.251-2.741,9.526
		c-1.75,1.749-4.023,2.74-6.861,2.74c-2.876,0-5.192-1.03-6.902-2.721c-2.644-2.624-2.817-4.997-2.817-11.353
		c0-6.358,0.193-8.71,2.817-11.355c1.692-1.71,4.045-2.72,6.883-2.72c3.577,0,5.852,1.399,7.425,3.323
		c1.166,1.4,1.77,3.129,1.77,4.025c0,0.486-0.117,0.816-0.388,1.088c-0.272,0.273-0.622,0.389-0.991,0.389
		c-0.39,0-0.7-0.116-0.915-0.311c-0.31-0.272-0.526-0.719-0.701-1.243c-0.991-2.936-3.148-4.628-6.22-4.628
		c-1.867,0-3.48,0.68-4.743,1.983c-1.77,1.807-1.945,3.849-1.945,9.448C196.186,137.517,196.402,139.5,198.131,141.269"/>
	<path clip-path="url(#SVGID_2_)" fill="#58595B" d="M220.013,140.433c0,1.749,0.797,2.78,2.527,2.78
		c0.641,0,1.012,0.077,1.263,0.233c0.331,0.214,0.525,0.544,0.525,0.991c0,0.447-0.194,0.778-0.525,0.991
		c-0.251,0.156-0.622,0.233-1.263,0.233h-0.507c-3.245,0-4.859-2.293-4.859-5.132v-20.801c0-0.68,0.038-0.952,0.253-1.302
		c0.214-0.351,0.641-0.602,1.167-0.602c0.525,0,0.951,0.251,1.166,0.602c0.213,0.35,0.253,0.622,0.253,1.302V140.433z"/>
	<path clip-path="url(#SVGID_2_)" fill="#58595B" d="M238.927,128.477c1.982,2.022,2.351,4.666,2.351,7.62
		c0,2.936-0.368,5.6-2.351,7.621c-1.322,1.322-3.17,2.177-5.502,2.177c-2.334,0-4.18-0.855-5.502-2.177
		c-1.984-2.021-2.352-4.685-2.352-7.621c0-2.954,0.368-5.598,2.352-7.62c1.323-1.321,3.168-2.177,5.502-2.177
		C235.757,126.3,237.605,127.156,238.927,128.477 M236.886,141.988c1.341-1.342,1.554-3.673,1.554-5.891
		c0-2.215-0.213-4.529-1.554-5.871c-0.934-0.933-2.042-1.399-3.46-1.399c-1.42,0-2.529,0.466-3.46,1.399
		c-1.341,1.342-1.557,3.655-1.557,5.871c0,2.217,0.216,4.549,1.557,5.891c0.932,0.933,2.041,1.38,3.46,1.38
		C234.844,143.368,235.952,142.921,236.886,141.988"/>
	<path clip-path="url(#SVGID_2_)" fill="#58595B" d="M248.368,128.828c1.069-1.555,3.131-2.527,5.23-2.527
		c1.36,0,2.41,0.273,3.441,0.914c0.582,0.369,1.069,0.816,1.069,1.438c0,0.369-0.175,0.758-0.409,0.991
		c-0.253,0.252-0.601,0.408-0.972,0.408c-0.329,0-0.641-0.136-1.341-0.544c-0.719-0.428-1.516-0.68-2.392-0.68
		c-2.838,0-4.626,2.158-4.626,5.151v9.934c0,0.681-0.038,0.952-0.253,1.303c-0.213,0.35-0.641,0.602-1.166,0.602
		c-0.526,0-0.952-0.252-1.167-0.602c-0.213-0.351-0.253-0.622-0.253-1.303v-15.649c0-0.68,0.04-0.952,0.253-1.303
		c0.216-0.35,0.641-0.602,1.167-0.602c0.525,0,0.952,0.252,1.166,0.602c0.215,0.351,0.253,0.623,0.253,1.303V128.828z"/>
	<path clip-path="url(#SVGID_2_)" fill="#58595B" d="M261.7,117.436c1.069,0,1.925,0.855,1.925,1.923
		c0,1.07-0.856,1.925-1.925,1.925c-1.069,0-1.925-0.855-1.925-1.925C259.774,118.291,260.63,117.436,261.7,117.436 M263.119,143.912
		c0,0.68-0.04,0.952-0.253,1.303c-0.213,0.35-0.641,0.603-1.166,0.603c-0.525,0-0.953-0.253-1.166-0.603
		c-0.215-0.351-0.253-0.623-0.253-1.303v-15.629c0-0.68,0.038-0.952,0.253-1.303c0.213-0.35,0.641-0.603,1.166-0.603
		c0.525,0,0.953,0.253,1.166,0.603c0.213,0.351,0.253,0.623,0.253,1.303V143.912z"/>
	<path clip-path="url(#SVGID_2_)" fill="#58595B" d="M280.826,128.477c1.982,2.022,2.353,4.666,2.353,7.62
		c0,2.936-0.371,5.6-2.353,7.621c-1.322,1.322-3.169,2.177-5.502,2.177c-2.332,0-4.18-0.855-5.502-2.177
		c-1.982-2.021-2.351-4.685-2.351-7.621c0-2.954,0.369-5.598,2.351-7.62c1.322-1.321,3.169-2.177,5.502-2.177
		C277.656,126.3,279.504,127.156,280.826,128.477 M278.785,141.988c1.341-1.342,1.556-3.673,1.556-5.891
		c0-2.215-0.215-4.529-1.556-5.871c-0.932-0.933-2.041-1.399-3.46-1.399c-1.419,0-2.526,0.466-3.46,1.399
		c-1.341,1.342-1.554,3.655-1.554,5.871c0,2.217,0.213,4.549,1.554,5.891c0.934,0.933,2.041,1.38,3.46,1.38
		C276.743,143.368,277.853,142.921,278.785,141.988"/>
	<path clip-path="url(#SVGID_2_)" fill="#58595B" d="M287.215,128.283c0-0.7,0.059-0.972,0.253-1.303
		c0.213-0.35,0.66-0.603,1.166-0.603c0.506,0,0.972,0.253,1.166,0.603c0.194,0.331,0.253,0.603,0.253,1.303v9.992
		c0,3.401,1.769,5.093,4.686,5.093c2.914,0,4.781-1.729,4.781-5.093v-9.992c0-0.7,0.059-0.972,0.253-1.303
		c0.215-0.35,0.662-0.603,1.166-0.603c0.506,0,0.953,0.253,1.168,0.603c0.194,0.331,0.251,0.603,0.251,1.303v15.629
		c0,0.68-0.038,0.952-0.251,1.303c-0.215,0.35-0.643,0.603-1.168,0.603c-0.525,0-0.951-0.253-1.166-0.603
		c-0.213-0.351-0.253-0.623-0.253-1.303v-0.35c-1.379,1.537-3.245,2.332-5.365,2.332c-2.079,0-3.77-0.622-4.958-1.788
		c-1.36-1.321-1.982-3.129-1.982-5.345V128.283z"/>
	<path clip-path="url(#SVGID_2_)" fill="#58595B" d="M306.006,142.746c0-0.33,0.156-0.699,0.449-0.971
		c0.213-0.196,0.504-0.292,0.816-0.292c0.35,0,0.776,0.175,1.282,0.543c1.381,0.992,2.916,1.439,5.036,1.439
		c3.245,0,5.093-1.107,5.093-3.364c0-1.71-1.01-2.585-3.188-2.778l-3.148-0.292c-3.713-0.331-5.717-1.983-5.717-5.133
		c0-3.479,2.937-5.618,7.039-5.618c2.138,0,3.848,0.447,5.346,1.205c0.506,0.253,0.778,0.466,0.953,0.7
		c0.175,0.252,0.213,0.447,0.213,0.719c0,0.233-0.137,0.544-0.312,0.757c-0.251,0.272-0.544,0.408-0.894,0.408
		c-0.31,0-0.601-0.116-1.069-0.369c-1.263-0.66-2.642-1.03-4.277-1.03c-2.72,0-4.276,1.127-4.276,3.149
		c0,1.73,1.069,2.547,3.363,2.761l3.072,0.291c3.361,0.311,5.637,1.574,5.637,5.191c0,3.693-3.169,5.832-7.796,5.832
		c-2.935,0-4.958-0.623-6.687-1.827C306.397,143.698,306.006,143.271,306.006,142.746"/>
	<path clip-path="url(#SVGID_2_)" fill="#58595B" d="M336.52,140.433c0,1.749,0.797,2.78,2.526,2.78
		c0.643,0,1.012,0.077,1.265,0.233c0.329,0.214,0.523,0.544,0.523,0.991c0,0.447-0.194,0.778-0.523,0.991
		c-0.253,0.156-0.622,0.233-1.265,0.233h-0.504c-3.247,0-4.861-2.293-4.861-5.132v-11.819h-1.341c-0.525,0-0.797-0.04-1.031-0.196
		c-0.329-0.193-0.466-0.504-0.466-0.894c0-0.388,0.137-0.699,0.466-0.893c0.234-0.156,0.506-0.195,1.031-0.195h1.341v-4.102
		c0-0.68,0.038-0.952,0.253-1.302c0.213-0.351,0.641-0.602,1.166-0.602s0.953,0.251,1.166,0.602c0.213,0.35,0.253,0.622,0.253,1.302
		v4.102h2.819c0.523,0,0.797,0.039,1.029,0.195c0.331,0.194,0.466,0.505,0.466,0.893c0,0.39-0.135,0.701-0.466,0.894
		c-0.232,0.156-0.506,0.196-1.029,0.196h-2.819V140.433z"/>
	<path clip-path="url(#SVGID_2_)" fill="#58595B" d="M345.965,136.817c0,4.181,1.982,6.63,5.677,6.63
		c1.478,0,2.954-0.408,4.102-1.38c0.603-0.505,0.894-0.68,1.322-0.68c0.603,0,1.206,0.583,1.206,1.224
		c0,0.855-1.225,1.711-1.984,2.177c-1.147,0.681-2.798,1.108-4.762,1.108c-5.074,0-8.38-3.032-8.38-9.798
		c0-6.318,3.072-9.798,7.893-9.798c4.861,0,7.815,3.54,7.855,8.866c0,0.388-0.021,0.913-0.39,1.282
		c-0.369,0.369-0.797,0.369-1.244,0.369H345.965z M356.113,134.679c-0.057-1.362-0.175-2.061-0.603-3.11
		c-0.719-1.749-2.389-2.858-4.471-2.858c-2.079,0-3.77,1.128-4.471,2.858c-0.428,1.049-0.544,1.748-0.603,3.11H356.113z"/>
	<path clip-path="url(#SVGID_2_)" fill="#58595B" d="M370.414,126.3c1.944,0,3.285,0.486,4.667,1.574
		c0.913,0.72,1.36,1.108,1.36,1.808c0,0.33-0.154,0.661-0.407,0.913c-0.234,0.215-0.544,0.351-0.875,0.351
		c-0.428,0-0.719-0.215-1.36-0.739c-1.265-1.05-2.119-1.38-3.385-1.38c-1.866,0-3.361,0.699-4.373,2.119
		c-0.894,1.263-1.244,2.721-1.244,5.152c0,2.41,0.35,3.868,1.244,5.132c1.012,1.419,2.507,2.138,4.373,2.138
		c1.265,0,2.178-0.33,3.385-1.38c0.466-0.409,0.932-0.739,1.36-0.739c0.331,0,0.641,0.137,0.875,0.35
		c0.253,0.252,0.407,0.583,0.407,0.914c0,0.7-0.544,1.205-1.36,1.827c-1.303,1.031-2.722,1.554-4.667,1.554
		c-4.877,0-8.456-3.264-8.456-9.796C361.958,129.547,365.537,126.3,370.414,126.3"/>
	<path clip-path="url(#SVGID_2_)" fill="#58595B" d="M382.87,145.216c-0.213,0.349-0.641,0.602-1.166,0.602
		c-0.525,0-0.953-0.253-1.166-0.602c-0.215-0.35-0.253-0.622-0.253-1.303v-24.183c0-0.68,0.038-0.952,0.253-1.303
		c0.213-0.35,0.641-0.602,1.166-0.602c0.525,0,0.953,0.252,1.166,0.602c0.213,0.351,0.253,0.623,0.253,1.303v8.904
		c1.4-1.555,3.189-2.334,5.365-2.334c4.374,0,6.921,2.762,6.921,7.078v10.535c0,0.681-0.038,0.953-0.253,1.303
		c-0.213,0.349-0.641,0.602-1.166,0.602c-0.525,0-0.953-0.253-1.166-0.602c-0.213-0.35-0.253-0.622-0.253-1.303v-10.069
		c0-3.364-1.75-5.017-4.665-5.017c-2.916,0-4.783,1.653-4.783,5.017v10.069C383.123,144.594,383.083,144.866,382.87,145.216"/>
	<path clip-path="url(#SVGID_2_)" fill="#58595B" d="M415.621,143.912c0,0.7-0.059,0.972-0.253,1.303
		c-0.213,0.35-0.662,0.603-1.166,0.603c-0.506,0-0.972-0.253-1.166-0.603c-0.196-0.331-0.253-0.603-0.253-1.303v-9.991
		c0-3.402-1.769-5.094-4.686-5.094c-2.916,0-4.783,1.729-4.783,5.094v9.991c0,0.7-0.057,0.972-0.253,1.303
		c-0.213,0.35-0.66,0.603-1.166,0.603c-0.504,0-0.951-0.253-1.166-0.603c-0.194-0.331-0.253-0.603-0.253-1.303v-15.629
		c0-0.68,0.04-0.952,0.253-1.303c0.215-0.35,0.641-0.603,1.166-0.603c0.525,0,0.953,0.253,1.166,0.603
		c0.215,0.351,0.253,0.623,0.253,1.303v0.35c1.381-1.537,3.247-2.333,5.367-2.333c2.079,0,3.77,0.622,4.956,1.789
		c1.362,1.321,1.984,3.129,1.984,5.345V143.912z"/>
	<path clip-path="url(#SVGID_2_)" fill="#58595B" d="M433.014,128.477c1.982,2.022,2.351,4.666,2.351,7.62
		c0,2.936-0.369,5.6-2.351,7.621c-1.322,1.322-3.169,2.177-5.502,2.177c-2.334,0-4.18-0.855-5.502-2.177
		c-1.984-2.021-2.353-4.685-2.353-7.621c0-2.954,0.369-5.598,2.353-7.62c1.322-1.321,3.167-2.177,5.502-2.177
		C429.845,126.3,431.692,127.156,433.014,128.477 M430.973,141.988c1.341-1.342,1.554-3.673,1.554-5.891
		c0-2.215-0.213-4.529-1.554-5.871c-0.934-0.933-2.041-1.399-3.46-1.399c-1.419,0-2.528,0.466-3.46,1.399
		c-1.341,1.342-1.556,3.655-1.556,5.871c0,2.217,0.215,4.549,1.556,5.891c0.932,0.933,2.041,1.38,3.46,1.38
		C428.932,143.368,430.039,142.921,430.973,141.988"/>
	<path clip-path="url(#SVGID_2_)" fill="#58595B" d="M442.358,140.433c0,1.749,0.797,2.78,2.528,2.78
		c0.641,0,1.01,0.077,1.263,0.233c0.331,0.214,0.525,0.544,0.525,0.991c0,0.447-0.194,0.778-0.525,0.991
		c-0.253,0.156-0.622,0.233-1.263,0.233h-0.506c-3.248,0-4.861-2.293-4.861-5.132v-20.801c0-0.68,0.04-0.952,0.253-1.302
		c0.215-0.351,0.641-0.602,1.166-0.602c0.525,0,0.953,0.251,1.166,0.602c0.215,0.35,0.253,0.622,0.253,1.302V140.433z"/>
	<path clip-path="url(#SVGID_2_)" fill="#58595B" d="M461.272,128.477c1.982,2.022,2.351,4.666,2.351,7.62
		c0,2.936-0.369,5.6-2.351,7.621c-1.322,1.322-3.169,2.177-5.502,2.177c-2.334,0-4.18-0.855-5.502-2.177
		c-1.984-2.021-2.353-4.685-2.353-7.621c0-2.954,0.369-5.598,2.353-7.62c1.322-1.321,3.167-2.177,5.502-2.177
		C458.102,126.3,459.949,127.156,461.272,128.477 M459.23,141.988c1.341-1.342,1.554-3.673,1.554-5.891
		c0-2.215-0.213-4.529-1.554-5.871c-0.934-0.933-2.041-1.399-3.46-1.399c-1.419,0-2.528,0.466-3.46,1.399
		c-1.341,1.342-1.556,3.655-1.556,5.871c0,2.217,0.215,4.549,1.556,5.891c0.932,0.933,2.041,1.38,3.46,1.38
		C457.189,143.368,458.296,142.921,459.23,141.988"/>
	<path clip-path="url(#SVGID_2_)" fill="#58595B" d="M479.247,146.129v-3.052c-1.516,2.003-3.342,2.547-5.403,2.547
		c-1.965,0-3.657-0.699-4.667-1.711c-1.904-1.904-2.332-4.86-2.332-7.97c0-3.11,0.428-6.065,2.332-7.97
		c1.01-1.012,2.741-1.672,4.705-1.672c2.1,0,3.811,0.467,5.365,2.488v-0.505c0-0.68,0.04-0.953,0.253-1.302
		c0.215-0.351,0.641-0.604,1.166-0.604s0.953,0.253,1.166,0.604c0.215,0.349,0.253,0.622,0.253,1.302v17.942
		c0,4.744-3.013,8.204-8.087,8.204c-1.807,0-3.032-0.272-4.258-0.933c-0.7-0.389-2.02-1.244-2.02-2.1
		c0-0.796,0.66-1.282,1.185-1.282c0.388,0,0.719,0.175,1.419,0.719c1.069,0.855,2.235,1.146,3.616,1.146
		C477.633,151.979,479.247,149.375,479.247,146.129 M474.466,128.828c-4.161,0-4.783,3.576-4.783,7.134s0.622,7.096,4.783,7.096
		c4.159,0,4.743-3.558,4.743-7.115C479.209,132.404,478.625,128.828,474.466,128.828"/>
	<path clip-path="url(#SVGID_2_)" fill="#58595B" d="M496.971,127.738c0.253-0.758,0.582-1.36,1.4-1.36
		c0.544,0,1.107,0.35,1.282,0.836c0.137,0.388,0.078,0.796-0.116,1.379l-7.505,21.676c-0.31,0.913-0.757,1.731-1.36,2.294
		c-0.991,0.952-2.197,1.302-3.52,1.302c-0.601,0-1.048-0.078-1.32-0.291c-0.272-0.234-0.428-0.506-0.428-0.972
		c0-0.408,0.156-0.777,0.447-0.991c0.232-0.175,0.504-0.272,1.029-0.272c1.4,0,2.294-0.545,2.897-2.352l1.206-3.617l-5.852-16.777
		c-0.194-0.583-0.253-0.991-0.118-1.379c0.175-0.486,0.74-0.836,1.284-0.836c0.816,0,1.147,0.602,1.4,1.36l4.627,14.133
		L496.971,127.738z"/>
	<path clip-path="url(#SVGID_2_)" fill="#DBE129" d="M32.613,23.241L32.613,23.241c-12.677,0-22.954,10.276-22.954,22.954v91.815
		c0,12.678,10.277,22.954,22.954,22.954c12.677,0,22.954-10.276,22.954-22.954V46.195C55.567,33.517,45.29,23.241,32.613,23.241"/>
	<path clip-path="url(#SVGID_2_)" fill="#75C044" d="M63.218,7.938L63.218,7.938c-12.678,0-22.954,10.276-22.954,22.954v91.815
		c0,12.678,10.277,22.955,22.954,22.955c12.676,0,22.954-10.277,22.954-22.955V30.892C86.172,18.214,75.894,7.938,63.218,7.938"/>
	<path clip-path="url(#SVGID_2_)" fill="#3CBEB1" d="M93.823,38.543L93.823,38.543c-12.677,0-22.954,10.277-22.954,22.954v91.815
		c0,12.678,10.276,22.954,22.954,22.954c12.677,0,22.954-10.276,22.954-22.954V61.497C116.777,48.82,106.5,38.543,93.823,38.543"/>
	<path clip-path="url(#SVGID_2_)" fill="#2A5CAA" d="M124.428,23.241L124.428,23.241c-12.678,0-22.954,10.276-22.954,22.954v91.815
		c0,12.678,10.276,22.954,22.954,22.954c12.676,0,22.954-10.276,22.954-22.954V46.195C147.382,33.517,137.105,23.241,124.428,23.241
		"/>
	<path clip-path="url(#SVGID_2_)" fill="#50B848" d="M55.567,46.195c0-9.681-6-17.945-14.479-21.319
		c-0.52,1.921-0.823,3.931-0.823,6.016v91.815c0,9.681,6.001,17.944,14.479,21.318c0.521-1.919,0.823-3.93,0.823-6.015V46.195z"/>
	<path clip-path="url(#SVGID_2_)" fill="#00A74C" d="M86.172,122.708V39.877c-8.909,3.155-15.302,11.63-15.302,21.62v82.83
		C79.778,141.173,86.172,132.698,86.172,122.708"/>
	<path clip-path="url(#SVGID_2_)" fill="#005A7E" d="M116.777,61.497c0-9.68-6-17.944-14.478-21.318
		c-0.521,1.921-0.824,3.931-0.824,6.016v91.815c0,9.68,6.001,17.944,14.479,21.318c0.521-1.92,0.823-3.931,0.823-6.016V61.497z"/>
	<path clip-path="url(#SVGID_2_)" fill="#58595B" d="M205.327,49.272v44.937c0,3.326-2.697,6.024-6.024,6.024
		c-3.326,0-6.024-2.697-6.024-6.024V49.272h-10.747c-2.968,0-5.374-2.405-5.374-5.373c0-2.968,2.406-5.373,5.374-5.373h33.541
		c2.968,0,5.374,2.405,5.374,5.373c0,2.968-2.406,5.373-5.374,5.373H205.327z"/>
	<path clip-path="url(#SVGID_2_)" fill="#58595B" d="M245.657,100.754c-6.76,0-12.307-2.427-16.64-6.76
		c-6.24-6.241-6.068-13.956-6.068-24.616c0-10.66-0.172-18.373,6.068-24.614c4.333-4.332,9.88-6.76,16.64-6.76
		c8.483,0,15.604,3.567,19.638,10.599c2.271,3.958-0.5,8.901-5.063,8.901h-0.015c-2.176,0-4.228-1.177-5.192-3.128
		c-1.647-3.332-4.578-5.624-9.282-5.624c-3.293,0-5.979,1.214-7.713,3.206c-2.341,2.6-3.033,5.546-3.033,17.42
		c0,11.874,0.692,14.821,3.033,17.42c1.734,1.994,4.42,3.207,7.713,3.207c4.704,0,7.635-2.292,9.282-5.624
		c0.964-1.953,3.016-3.129,5.192-3.129c4.57,0,7.343,4.956,5.059,8.912C261.221,97.19,254.072,100.754,245.657,100.754"/>
	<path clip-path="url(#SVGID_2_)" fill="#58595B" d="M310.357,93.993c-4.333,4.334-9.62,6.76-16.64,6.76
		c-7.022,0-12.395-2.425-16.729-6.76c-6.24-6.239-6.067-13.955-6.067-24.614c0-10.66-0.173-18.373,6.067-24.613
		c4.333-4.334,9.707-6.761,16.729-6.761c7.02,0,12.307,2.427,16.64,6.761c6.24,6.24,6.153,13.954,6.153,24.613
		C316.51,80.038,316.597,87.754,310.357,93.993 M301.428,52.046c-1.733-1.994-4.42-3.295-7.712-3.295
		c-3.294,0-6.069,1.301-7.8,3.295c-2.341,2.599-2.948,5.46-2.948,17.333c0,11.873,0.607,14.734,2.948,17.334
		c1.731,1.993,4.506,3.294,7.8,3.294c3.292,0,5.978-1.301,7.712-3.294c2.341-2.6,3.035-5.461,3.035-17.334
		C304.463,57.505,303.769,54.645,301.428,52.046"/>
	<path clip-path="url(#SVGID_2_)" fill="#58595B" d="M363.651,93.734c-4.941,5.113-10.835,7.02-17.42,7.02
		c-6.761,0-12.309-2.426-16.64-6.761c-6.242-6.241-6.069-13.955-6.069-24.614c0-10.661-0.173-18.373,6.069-24.613
		c4.331-4.334,9.704-6.761,16.64-6.761c10.27,0,16.921,4.828,20.461,11.402c2.035,3.776-0.759,8.358-5.048,8.358h-0.316
		c-2.246,0-4.192-1.36-5.198-3.369c-1.835-3.665-5.065-5.645-9.898-5.645c-3.294,0-5.98,1.301-7.714,3.295
		c-2.341,2.599-2.948,5.46-2.948,17.333c0,11.873,0.607,14.82,2.948,17.42c1.733,1.993,4.42,3.207,7.714,3.207
		c3.638,0,6.586-1.3,8.578-3.467c1.995-2.254,2.775-5.027,2.775-8.235v-2.339h-6.328c-2.775,0-5.025-2.252-5.025-5.027
		c0-2.776,2.25-5.026,5.025-5.026h12.895c2.978,0,5.392,2.414,5.392,5.392v3.622C369.543,83.853,367.985,89.226,363.651,93.734"/>
</g>
</svg>
